<svg aria-hidden="true" style="width:0;height:0;position:absolute" xmlns="http://www.w3.org/2000/svg" overflow="hidden"><defs><symbol id="moon" viewBox="0 0 32 32"><path fill="currentColor" d="M17.701 32a15.97 15.97 0 0 0 12.429-5.925c.442-.544-.04-1.339-.723-1.209-7.763 1.478-14.891-4.474-14.891-12.31 0-4.514 2.416-8.665 6.344-10.9.605-.345.453-1.262-.235-1.389-.879-.17-1.89-.267-2.923-.268-8.832 0-16 7.157-16 16 0 8.832 7.157 16 16 16z"/></symbol><symbol id="sun" viewBox="0 0 32 32"><path fill="currentColor" d="M16 10c-3.306 0-6 2.694-6 6s2.694 6 6 6 6-2.694 6-6-2.694-6-6-6zm15.4 5.031-5.919-2.956L27.575 5.8c.281-.85-.525-1.656-1.369-1.369l-6.275 2.094L16.969.6c-.4-.8-1.537-.8-1.938 0l-2.956 5.919-6.281-2.094c-.85-.281-1.656.525-1.369 1.369l2.094 6.275L.6 15.032c-.8.4-.8 1.538 0 1.938l5.919 2.956-2.094 6.281c-.281.85.525 1.656 1.369 1.369l6.275-2.094 2.956 5.919c.4.8 1.538.8 1.938 0l2.956-5.919 6.275 2.094c.85.281 1.656-.525 1.369-1.369l-2.094-6.275 5.919-2.956c.813-.406.813-1.544.012-1.944zm-9.744 6.625c-3.119 3.119-8.194 3.119-11.313 0s-3.119-8.194 0-11.313c3.119-3.119 8.194-3.119 11.313 0s3.119 8.194 0 11.313z"/></symbol><symbol id="home" viewBox="0 0 16 16"><path fill="currentColor" d="m16 9.226-8-6.21-8 6.21V6.694l8-6.21 8 6.21zM14 9v6h-4v-4H6v4H2V9l6-4.5z"/></symbol><symbol id="WiFi" viewBox="0 0 40 32"><path fill="currentColor" d="M20 18c3.308 0 6.308 1.346 8.481 3.519l-2.827 2.827C24.205 22.897 22.205 22 20 22s-4.206.897-5.654 2.346l-2.827-2.827A11.963 11.963 0 0 1 20 18zM5.858 15.858C9.635 12.081 14.658 10 20 10s10.365 2.08 14.142 5.858l-2.828 2.828C28.292 15.664 24.274 14 20 14s-8.292 1.664-11.314 4.686l-2.828-2.828zM30.899 4.201a27.89 27.89 0 0 1 8.899 6l-2.828 2.828C32.437 8.496 26.41 6 19.999 6S7.561 8.496 3.028 13.029L.2 10.201A27.917 27.917 0 0 1 19.998 2c3.779 0 7.446.741 10.899 2.201zM18 28a2 2 0 1 1 3.999-.001A2 2 0 0 1 18 28z"/></symbol><symbol id="airplane" viewBox="0 0 32 32"><path fill="currentColor" d="m24 19.999-5.713-5.713L32 4l-4-4-17.141 6.858-5.397-5.397C3.906-.095 1.734-.467.634.633s-.727 3.273.828 4.828l5.396 5.396L0 28l4 4 10.287-13.715L20 23.998v7.999h4l2-6 6-2v-4h-7.999z"/></symbol><symbol id="contrast" viewBox="0 0 32 32"><path fill="currentColor" d="M16 0C7.163 0 0 7.163 0 16s7.163 16 16 16 16-7.163 16-16S24.837 0 16 0zM4 16C4 9.373 9.373 4 16 4v24C9.373 28 4 22.627 4 16z"/></symbol><symbol id="refresh" viewBox="0 0 18 18"><path fill="currentColor" d="M10 3v2h-.009a5 5 0 0 0-3.531 8.54l-1.41 1.41A7 7 0 0 1 9.999 3H10zm4.95 2.05A7 7 0 0 1 10.001 17H10v-2h.009a5 5 0 0 0 3.531-8.54l1.41-1.41zM10 20l-4-4 4-4v8zm0-12V0l4 4-4 4z"/></symbol></defs></svg>